<svg xmlns="http://www.w3.org/2000/svg" viewBox="0 0 1000 620" role="img" aria-label="Stylized geographic overview of Virginia">
<defs>
<linearGradient id="water" x1="0" x2="1" y1="0" y2="1"><stop stop-color="#07192e"/><stop offset=".55" stop-color="#0c2947"/><stop offset="1" stop-color="#031122"/></linearGradient>
<linearGradient id="land" x1="0" x2="1" y1="0" y2="1"><stop stop-color="#143f36"/><stop offset=".33" stop-color="#1b513d"/><stop offset=".7" stop-color="#133b34"/><stop offset="1" stop-color="#0e2c30"/></linearGradient>
<linearGradient id="ridge" x1="0" x2=".8" y1="0" y2=".8"><stop stop-color="#4a8452" stop-opacity=".45"/><stop offset="1" stop-color="#061e29" stop-opacity=".16"/></linearGradient>
<filter id="shadow"><feGaussianBlur stdDeviation="13"/></filter>
<filter id="halo"><feGaussianBlur stdDeviation="4"/></filter>
<pattern id="grid" width="40" height="40" patternUnits="userSpaceOnUse"><path d="M40 0H0V40" fill="none" stroke="#5082ab" stroke-opacity=".11" stroke-width=".8"/></pattern>
<clipPath id="va"><path d="M902.3,299.1L918.1,296.2L904.6,325.5L890.4,335.9L882.0,375.5L860.5,439.6L843.0,452.8L837.4,429.2L846.4,376.4L874.1,309.4L902.3,299.1Z M838.5,309.4L840.8,309.4L835.7,309.4L838.5,309.4Z M598.0,49.1L651.6,106.6L662.9,73.6L678.7,76.5L690.0,90.6L690.0,116.1L711.5,124.6L725.0,140.6L732.9,165.1L723.9,192.5L711.5,200.0L703.6,224.5L708.1,242.5L735.7,236.8L740.8,264.2L777.0,275.5L787.1,297.2L815.9,320.8L802.9,368.9L814.8,406.6L800.7,424.5L799.0,446.2L812.0,459.4L797.8,480.2L776.4,452.8L771.3,462.2L789.9,482.1L840.8,486.8L853.7,550.9L478.3,552.8L397.5,551.9L326.9,549.0L254.7,544.3L49.1,542.4L104.5,517.9L111.3,499.0L131.0,492.4L132.1,477.3L147.4,466.0L147.4,452.8L185.2,427.3L224.7,381.1L223.0,395.3L237.2,424.5L254.7,438.7L267.7,437.7L287.4,415.1L301.5,433.0L328.1,423.6L374.9,390.6L378.9,400.9L397.0,385.8L397.5,354.7L408.8,327.4L428.0,301.9L435.9,270.8L456.2,238.7L464.1,199.1L481.7,222.7L498.6,230.2L509.3,216.1L531.3,154.7L544.3,169.8L592.3,100.0L598.0,49.1Z"/></clipPath>
</defs>
<rect width="1000" height="620" fill="url(#water)"/>
<path d="M700 0Q750 220 870 300T1000 620H1000V0Z" fill="#2b6990" fill-opacity=".13"/>
<path d="M0 500Q200 470 420 540T900 480" stroke="#5a85a9" stroke-opacity=".1" stroke-width="22" fill="none"/>
<path d="M902.3,299.1L918.1,296.2L904.6,325.5L890.4,335.9L882.0,375.5L860.5,439.6L843.0,452.8L837.4,429.2L846.4,376.4L874.1,309.4L902.3,299.1Z M838.5,309.4L840.8,309.4L835.7,309.4L838.5,309.4Z M598.0,49.1L651.6,106.6L662.9,73.6L678.7,76.5L690.0,90.6L690.0,116.1L711.5,124.6L725.0,140.6L732.9,165.1L723.9,192.5L711.5,200.0L703.6,224.5L708.1,242.5L735.7,236.8L740.8,264.2L777.0,275.5L787.1,297.2L815.9,320.8L802.9,368.9L814.8,406.6L800.7,424.5L799.0,446.2L812.0,459.4L797.8,480.2L776.4,452.8L771.3,462.2L789.9,482.1L840.8,486.8L853.7,550.9L478.3,552.8L397.5,551.9L326.9,549.0L254.7,544.3L49.1,542.4L104.5,517.9L111.3,499.0L131.0,492.4L132.1,477.3L147.4,466.0L147.4,452.8L185.2,427.3L224.7,381.1L223.0,395.3L237.2,424.5L254.7,438.7L267.7,437.7L287.4,415.1L301.5,433.0L328.1,423.6L374.9,390.6L378.9,400.9L397.0,385.8L397.5,354.7L408.8,327.4L428.0,301.9L435.9,270.8L456.2,238.7L464.1,199.1L481.7,222.7L498.6,230.2L509.3,216.1L531.3,154.7L544.3,169.8L592.3,100.0L598.0,49.1Z" transform="translate(0 16)" fill="#020e17" opacity=".85" filter="url(#shadow)"/>
<path d="M902.3,299.1L918.1,296.2L904.6,325.5L890.4,335.9L882.0,375.5L860.5,439.6L843.0,452.8L837.4,429.2L846.4,376.4L874.1,309.4L902.3,299.1Z M838.5,309.4L840.8,309.4L835.7,309.4L838.5,309.4Z M598.0,49.1L651.6,106.6L662.9,73.6L678.7,76.5L690.0,90.6L690.0,116.1L711.5,124.6L725.0,140.6L732.9,165.1L723.9,192.5L711.5,200.0L703.6,224.5L708.1,242.5L735.7,236.8L740.8,264.2L777.0,275.5L787.1,297.2L815.9,320.8L802.9,368.9L814.8,406.6L800.7,424.5L799.0,446.2L812.0,459.4L797.8,480.2L776.4,452.8L771.3,462.2L789.9,482.1L840.8,486.8L853.7,550.9L478.3,552.8L397.5,551.9L326.9,549.0L254.7,544.3L49.1,542.4L104.5,517.9L111.3,499.0L131.0,492.4L132.1,477.3L147.4,466.0L147.4,452.8L185.2,427.3L224.7,381.1L223.0,395.3L237.2,424.5L254.7,438.7L267.7,437.7L287.4,415.1L301.5,433.0L328.1,423.6L374.9,390.6L378.9,400.9L397.0,385.8L397.5,354.7L408.8,327.4L428.0,301.9L435.9,270.8L456.2,238.7L464.1,199.1L481.7,222.7L498.6,230.2L509.3,216.1L531.3,154.7L544.3,169.8L592.3,100.0L598.0,49.1Z" transform="translate(0 10)" fill="#061521" stroke="#1e4261" stroke-width="3"/>
<path d="M902.3,299.1L918.1,296.2L904.6,325.5L890.4,335.9L882.0,375.5L860.5,439.6L843.0,452.8L837.4,429.2L846.4,376.4L874.1,309.4L902.3,299.1Z M838.5,309.4L840.8,309.4L835.7,309.4L838.5,309.4Z M598.0,49.1L651.6,106.6L662.9,73.6L678.7,76.5L690.0,90.6L690.0,116.1L711.5,124.6L725.0,140.6L732.9,165.1L723.9,192.5L711.5,200.0L703.6,224.5L708.1,242.5L735.7,236.8L740.8,264.2L777.0,275.5L787.1,297.2L815.9,320.8L802.9,368.9L814.8,406.6L800.7,424.5L799.0,446.2L812.0,459.4L797.8,480.2L776.4,452.8L771.3,462.2L789.9,482.1L840.8,486.8L853.7,550.9L478.3,552.8L397.5,551.9L326.9,549.0L254.7,544.3L49.1,542.4L104.5,517.9L111.3,499.0L131.0,492.4L132.1,477.3L147.4,466.0L147.4,452.8L185.2,427.3L224.7,381.1L223.0,395.3L237.2,424.5L254.7,438.7L267.7,437.7L287.4,415.1L301.5,433.0L328.1,423.6L374.9,390.6L378.9,400.9L397.0,385.8L397.5,354.7L408.8,327.4L428.0,301.9L435.9,270.8L456.2,238.7L464.1,199.1L481.7,222.7L498.6,230.2L509.3,216.1L531.3,154.7L544.3,169.8L592.3,100.0L598.0,49.1Z" fill="url(#land)" stroke="#67b9ec" stroke-width="2.2"/>
<g clip-path="url(#va)">
<rect width="1000" height="620" fill="url(#grid)"/>
<path d="M-20 160 C150 200 125 430 350 470S700 200 980 400" fill="none" stroke="#a5cf94" stroke-opacity=".14" stroke-width="90"/>
<path d="M-80 40 C110 220 170 160 230 350S480 530 700 580" fill="none" stroke="#658758" stroke-opacity=".4" stroke-width="63"/>
<path d="M-30 55 C130 180 148 245 270 312S450 460 520 490" fill="none" stroke="#c3ca8d" stroke-opacity=".19" stroke-width="23"/>
<path d="M0 96 C150 260 140 205 290 370" fill="none" stroke="#c3ddb4" stroke-opacity=".18" stroke-width="3"/>
<path d="M0 125 C150 280 168 236 310 395" fill="none" stroke="#c3ddb4" stroke-opacity=".17" stroke-width="3"/>
<path d="M0 154 C130 290 165 270 300 420" fill="none" stroke="#c3ddb4" stroke-opacity=".15" stroke-width="3"/>
<path d="M0 185 C130 315 162 310 286 445" fill="none" stroke="#c3ddb4" stroke-opacity=".12" stroke-width="3"/>
<path d="M10 230 C175 350 155 343 278 467" fill="none" stroke="#c3ddb4" stroke-opacity=".1" stroke-width="3"/>
<path d="M80 85 Q280 180 520 160T990 340" fill="none" stroke="#f3b76a" stroke-width="1.7" stroke-opacity=".5"/>
<path d="M50 485 Q260 390 488 332T995 470" fill="none" stroke="#f3b76a" stroke-width="2.2" stroke-opacity=".42"/>
<path d="M250 70Q340 350 580 540" fill="none" stroke="#efac60" stroke-width="1.5" stroke-opacity=".25"/>
</g>
<path d="M902.3,299.1L918.1,296.2L904.6,325.5L890.4,335.9L882.0,375.5L860.5,439.6L843.0,452.8L837.4,429.2L846.4,376.4L874.1,309.4L902.3,299.1Z M838.5,309.4L840.8,309.4L835.7,309.4L838.5,309.4Z M598.0,49.1L651.6,106.6L662.9,73.6L678.7,76.5L690.0,90.6L690.0,116.1L711.5,124.6L725.0,140.6L732.9,165.1L723.9,192.5L711.5,200.0L703.6,224.5L708.1,242.5L735.7,236.8L740.8,264.2L777.0,275.5L787.1,297.2L815.9,320.8L802.9,368.9L814.8,406.6L800.7,424.5L799.0,446.2L812.0,459.4L797.8,480.2L776.4,452.8L771.3,462.2L789.9,482.1L840.8,486.8L853.7,550.9L478.3,552.8L397.5,551.9L326.9,549.0L254.7,544.3L49.1,542.4L104.5,517.9L111.3,499.0L131.0,492.4L132.1,477.3L147.4,466.0L147.4,452.8L185.2,427.3L224.7,381.1L223.0,395.3L237.2,424.5L254.7,438.7L267.7,437.7L287.4,415.1L301.5,433.0L328.1,423.6L374.9,390.6L378.9,400.9L397.0,385.8L397.5,354.7L408.8,327.4L428.0,301.9L435.9,270.8L456.2,238.7L464.1,199.1L481.7,222.7L498.6,230.2L509.3,216.1L531.3,154.7L544.3,169.8L592.3,100.0L598.0,49.1Z" fill="none" stroke="#3dbbff" stroke-width="10" opacity=".28" filter="url(#halo)"/>
<path d="M902.3,299.1L918.1,296.2L904.6,325.5L890.4,335.9L882.0,375.5L860.5,439.6L843.0,452.8L837.4,429.2L846.4,376.4L874.1,309.4L902.3,299.1Z M838.5,309.4L840.8,309.4L835.7,309.4L838.5,309.4Z M598.0,49.1L651.6,106.6L662.9,73.6L678.7,76.5L690.0,90.6L690.0,116.1L711.5,124.6L725.0,140.6L732.9,165.1L723.9,192.5L711.5,200.0L703.6,224.5L708.1,242.5L735.7,236.8L740.8,264.2L777.0,275.5L787.1,297.2L815.9,320.8L802.9,368.9L814.8,406.6L800.7,424.5L799.0,446.2L812.0,459.4L797.8,480.2L776.4,452.8L771.3,462.2L789.9,482.1L840.8,486.8L853.7,550.9L478.3,552.8L397.5,551.9L326.9,549.0L254.7,544.3L49.1,542.4L104.5,517.9L111.3,499.0L131.0,492.4L132.1,477.3L147.4,466.0L147.4,452.8L185.2,427.3L224.7,381.1L223.0,395.3L237.2,424.5L254.7,438.7L267.7,437.7L287.4,415.1L301.5,433.0L328.1,423.6L374.9,390.6L378.9,400.9L397.0,385.8L397.5,354.7L408.8,327.4L428.0,301.9L435.9,270.8L456.2,238.7L464.1,199.1L481.7,222.7L498.6,230.2L509.3,216.1L531.3,154.7L544.3,169.8L592.3,100.0L598.0,49.1Z" fill="none" stroke="#73ceff" stroke-width="1.5" stroke-opacity=".88"/>
<g font-family="Arial,sans-serif" font-size="17" font-weight="700" fill="#a5bcd4" opacity=".56" letter-spacing="3">
<text x="160" y="80">WEST VIRGINIA</text><text x="710" y="78">MARYLAND</text><text x="380" y="593">NORTH CAROLINA</text>
</g>
<text x="560" y="312" font-family="Arial,sans-serif" font-size="42" font-weight="900" fill="#e4fff1" opacity=".22" letter-spacing="13">VIRGINIA</text>
</svg>